<?xml version="1.0" standalone="no"?>
<!DOCTYPE svg PUBLIC "-//W3C//DTD SVG 20010904//EN"
 "http://www.w3.org/TR/2001/REC-SVG-20010904/DTD/svg10.dtd">
<svg version="1.0" xmlns="http://www.w3.org/2000/svg"
 width="600.000000pt" height="600.000000pt" viewBox="0 0 600.000000 600.000000"
 preserveAspectRatio="xMidYMid meet">
<metadata>
Created by potrace 1.14, written by Peter Selinger 2001-2017
</metadata>
<g transform="translate(0.000000,600.000000) scale(0.100000,-0.100000)"
fill="#000000" stroke="none">
<path d="M2775 5995 c-11 -2 -69 -9 -130 -15 -653 -70 -1326 -401 -1791 -882
-451 -467 -725 -1021 -826 -1670 -30 -193 -32 -637 -5 -823 51 -342 131 -608
271 -900 392 -816 1112 -1402 1991 -1619 1116 -275 2290 113 3026 1000 307
370 521 812 623 1285 51 234 60 335 60 629 0 294 -9 395 -60 629 -157 731
-580 1376 -1188 1812 -394 282 -852 464 -1346 535 -95 14 -573 28 -625 19z"/>
</g>
</svg>
